<?xml version="1.0" encoding="utf-8"?>
<!-- Generator: Adobe Illustrator 16.0.0, SVG Export Plug-In . SVG Version: 6.00 Build 0)  -->
<!DOCTYPE svg PUBLIC "-//W3C//DTD SVG 1.1//EN" "http://www.w3.org/Graphics/SVG/1.1/DTD/svg11.dtd">
<svg version="1.1" id="Layer_1" xmlns="http://www.w3.org/2000/svg" xmlns:xlink="http://www.w3.org/1999/xlink" x="0px" y="0px"
	 width="392px" height="360px" viewBox="0 0 392 360" enable-background="new 0 0 392 360" xml:space="preserve">
<ellipse fill="#E6E7E8" cx="152.307" cy="339.27" rx="146.307" ry="15.02"/>
<g>
	<g>
		<polygon fill="#5D5149" points="202.607,326.219 188.45,232.053 191.176,231.633 205.335,325.8 		"/>
	</g>
	<g>
		<polygon fill="#5D5149" points="185.319,326.219 171.16,232.053 173.886,231.633 188.045,325.8 		"/>
	</g>
	<g>
		<polygon fill="#5D5149" points="100.157,326.219 97.429,325.8 111.589,231.633 114.315,232.053 		"/>
	</g>
	<path fill="#C9C5B4" d="M192.881,233.013l11.092-116.691c0,0-19.4-2.538-31.121-1.913l-17.618,118.604H192.881z"/>
	<rect x="155.234" y="227.08" fill="#C9C5B4" width="37.646" height="5.933"/>
	<path fill="#C9C5B4" d="M130.604,228.258l-5.883-111.202c0,0,49.095-5.332,79.252-0.735L130.604,228.258z"/>
	<path fill="#2A2D47" d="M169.811,81.048c0,0,7.58-22.232-6.887-29.124c-14.467-6.893-26.749,3.071-29.07,8.461
		c-2.319,5.391-1.706,15.195,0.272,22.03c1.979,6.835,1.691,17.243-2.607,20.722c-4.3,3.481-9.63,9.261-9.367,21.026
		c0.164,7.299,28.724-18.672,28.724-18.672L169.811,81.048z"/>
	<path fill="#D4C3BD" d="M150.506,320.278c0,0-0.449,15.713,1.794,16.656c2.243,0.946,10.735-4.517,14.48-9.921
		c3.745-5.403-4.693-17.977-6.078-24.916c-0.579-2.904-7.178-8.13-10.395-6.63c-3.217,1.495-5.566,5.332-5.566,5.332
		S152.927,306.409,150.506,320.278z"/>
	<g>
		<path fill="#DE9673" d="M144.741,300.8c0,0,2.787,5.36,4.218,9.521c1.432,4.16,1.7,15.681,2.604,16.479
			c0.902,0.8,8.018-2.788,8.967-7.098c0.95-4.307-1.934-12.917-4.682-17.444c-2.747-4.527-5.541-6.791-5.541-6.791
			S145.457,296.409,144.741,300.8z"/>
	</g>
	<polygon fill="#D4C3BD" points="160.702,302.098 168.348,313.258 166.9,314.25 160.991,305.624 	"/>
	<path fill="#DE9673" d="M133.18,178.716c0,0,3.738,6.314,0,10.911c-3.739,4.597-28.878,17.223-28.693,24.516
		c0.183,7.296,4.789,18.712,6.443,21.606c1.656,2.897,7.761,14.915,10.932,21.947c3.171,7.033,21.512,40.682,25.098,48.266
		c3.586,7.586,1.38-30.339,1.38-30.339l-18.341-53.781l42.854-41.748C172.852,180.094,167.665,168.55,133.18,178.716z"/>
	<path fill="#D44140" d="M149.483,107.495c0,0-11.891,2.636-16.61,5.394c-4.719,2.758-15.2,15.446-15.2,20.901
		c0,5.455,45.836,10.551,45.836,10.551l8.687,31.717c0,0,23.168-5.654,25.925-10.342c2.759-4.689-9.122-38.061-10.777-45.095
		c-1.654-7.032-10.321-11.774-19.975-13.127C157.717,106.143,149.483,107.495,149.483,107.495z"/>
	<path fill="#EFA986" d="M177.586,179.758c0,0-0.828,5.425,1.378,7.724c2.208,2.298,12.37,15.7,6.987,28.868
		c-4.941,12.088-14.525,11.86-14.525,11.86h-14.833c0,0,4.306,21.761,2.916,36.104c-1.392,14.343-7.934,47.092-8.07,48.747
		c-0.138,1.655-6.273,6.829-8.065,4.208c0,0-0.166-19.72-1.131-27.167c-0.965-7.446-5.074-37.233-6.315-41.646
		c-1.242-4.412-8.552-17.788-8.552-19.167c0-1.381-7.137-22.97,8.446-28.483C151.405,195.288,156.912,179.874,177.586,179.758z"/>
	<path fill="#E6D3CC" d="M135.989,332.479c0,0-10.23,11.934-9.081,14.079c1.149,2.146,11.188,3.236,17.497,1.392
		c6.311-1.846,7.658-16.93,10.944-23.194c1.375-2.624-0.469-10.835-3.911-11.694c-3.444-0.858-7.682,0.646-7.682,0.646
		S146.594,323.217,135.989,332.479z"/>
	<g>
		<path fill="#EFA986" d="M143.757,313.708c0,0-1.205,5.921-2.708,10.056c-1.504,4.138-8.54,13.262-8.341,14.451
			c0.2,1.189,7.989,2.871,11.437,0.121c3.447-2.752,6.618-11.262,7.329-16.509c0.71-5.248-0.035-8.766-0.035-8.766
			S147.074,310.744,143.757,313.708z"/>
	</g>
	<polygon fill="#E6D3CC" points="155.35,324.756 154.277,338.241 152.527,338.102 153.356,327.68 	"/>
	<path fill="#2A2D47" d="M185.952,216.351c-4.666,12.251-14.525,11.86-14.525,11.86h-14.833c0,0-6.188-9.807-21.338-11.49
		c-3.357-0.372-7.157-0.35-11.426,0.272c-0.052,0.008-0.103,0.013-0.154,0.022c-20.13,2.981-16.244,10.371-16.182,10.564
		c-1.672-4.086-3.43-10.582-3.006-14.079c1.93-15.937,24.953-19.277,28.693-23.874c3.739-4.597,0-10.91,0-10.91
		c34.485-10.167,39.67,1.377,39.67,1.377c1.512-0.209,5.387-2.44,7.035-2.45c0,0,1.725,3.77,2.94,7.171
		C183.898,187.814,191.016,203.056,185.952,216.351z"/>
	<polygon fill="#DED2C6" points="171.643,128.621 176.746,176.059 109.588,176.059 104.486,128.621 	"/>
	<rect x="170.874" y="171.791" fill="#DED2C6" width="11.217" height="4.268"/>
	<rect x="39.907" y="176.059" fill="#BC8552" width="209.548" height="6.458"/>
	<path fill="#EFA986" d="M156.913,55.716c0,0,15.046,4.452,12.897,25.333c-2.151,20.881-11.977,19.806-12.897,19.959
		s-12.588,0.922-16.274-24.412C136.955,51.263,156.913,55.716,156.913,55.716z"/>
	<path fill="#EFA986" d="M164.083,97.167c0,0-0.794,6.913,0.535,11.212c1.331,4.299-17.525,4.418-17.515,0.883
		c0.011-4.017,1.929-7.371,0.123-14.254C145.421,88.125,164.083,97.167,164.083,97.167z"/>
	<path fill="#2A2D47" d="M153.03,65.026c0,0,8.175,13.004,16.78,16.022c0,0,4.698-21.822-14.709-26.396
		c-19.405-4.571-16.364,22.042-14.916,29.139C140.186,83.792,144.227,73.352,153.03,65.026z"/>
	<path fill="#A77861" d="M149.458,98.049c0,0,5.954,6.202,13.567,0.647c0,0-0.63,3.965-6.104,4.476
		C151.445,103.684,149.458,98.049,149.458,98.049z"/>
	<path opacity="0.72" fill="#FFFFFF" d="M142.063,63.067c0,0,4.303-8.334,11.571-8.707c7.267-0.372,11.589,5.932,11.589,5.932
		s-2.837-7.098-11.58-7.098S142.063,63.067,142.063,63.067z"/>
	<path fill="#EFA986" d="M166.543,107.385c0,0-0.265,14.452-11.728,14.881c-11.463,0.429-9.077-13.861-9.077-13.861
		S154.123,105.008,166.543,107.385z"/>
	<rect x="244.704" y="182.517" fill="#807167" width="4.751" height="148.327"/>
	<rect x="47.007" y="182.517" fill="#807167" width="4.75" height="148.327"/>
</g>
<g>
	<g>
		<g>
			<polygon fill="#FFC657" points="49,8.711 119.681,9.036 119.445,60.267 119.396,71.059 108.656,60.217 48.763,59.942 			"/>
		</g>
	</g>
	<circle fill="#FFFFFF" cx="84.216" cy="36.537" r="5.398"/>
	<circle fill="#FFFFFF" cx="66.486" cy="36.481" r="5.398"/>
	<circle fill="#FFFFFF" cx="101.539" cy="36.592" r="5.398"/>
</g>
<g>
	<path fill="#CFC247" d="M82.856,159.295L82.856,159.295c0,0,4.014,1.92,2.967,1.047c-1.047-0.872,2.618-5.758,7.678-12.215
		c5.061-6.457,1.745-9.248-1.396-16.751c-1.248-2.982-3.435-4.09-5.524-4.035c-3.166,0.083-6.11,2.836-5.233,5.78
		c1.457,4.886,3.429,9.597-0.235,14.483C77.479,152.447,82.762,159.176,82.856,159.295z"/>
	<path fill="#CFC247" d="M93.756,133.034c2.45-1.221,5.417-5.583,2.973-6.631c-2.442-1.046-0.538-4.188-2.973-4.188
		s-3.657,3.791-2.261,5.908C91.495,128.124,91.306,134.255,93.756,133.034z"/>
	<path fill="#CFC247" d="M94.374,122.313c0,0,3.838-3.316,0-4.014c-3.839-0.697-2.792,3.49-2.442,4.014
		C92.279,122.836,94.374,122.313,94.374,122.313z"/>
	<path fill="#A09834" d="M79.193,133.907c2.966-0.523,2.966-3.49,2.966-3.49s-2.355-4.362-4.362-2.355
		C75.79,130.068,76.227,134.43,79.193,133.907z"/>
	<path fill="#A09834" d="M82.856,159.295L82.856,159.295c0,0,5.846-10.644,2.792-18.146c-2.14-5.258-0.339-10.901,0.932-13.808
		c-3.166,0.083-6.11,2.836-5.233,5.78c1.457,4.886,3.429,9.597-0.235,14.483C77.479,152.447,82.762,159.176,82.856,159.295z"/>
	<polygon fill="#727644" points="93.061,159.166 75.745,159.166 76.484,161.7 92.428,161.7 	"/>
	<polygon fill="#4C4C38" points="89.365,176.059 90.802,164.565 91.16,161.7 77.857,161.7 79.546,176.059 	"/>
	<polygon fill="#727644" points="93.807,140.276 97.643,137.659 93.807,139.752 	"/>
	<polygon fill="#727644" points="89.445,123.088 91.534,124.964 91.713,124.528 	"/>
	<polygon fill="#727644" points="94.591,124.615 97.122,124.266 94.81,124.266 	"/>
	<polygon fill="#727644" points="92.062,116.195 92.803,118.726 93.109,118.726 	"/>
	<polygon fill="#727644" points="95.028,118.726 95.246,119.075 96.904,117.679 	"/>
	<polygon fill="#727644" points="93.807,118.377 94.274,118.552 93.807,116.894 	"/>
	<polygon fill="#727644" points="92.672,145.729 94.274,149.742 93.501,145.729 	"/>
	<polygon fill="#727644" points="78.146,130.388 74.83,128.119 77.855,130.742 	"/>
	<polygon fill="#727644" points="80.705,149.742 75.936,150.513 80.705,150.513 	"/>
	<path fill="#454633" d="M90.802,164.565l0.358-2.865H77.857l1.689,14.359h3.24C82.519,168.167,88.208,165.41,90.802,164.565z"/>
</g>
<g>
	<polygon fill="#7D786C" points="85.233,153.788 85.124,154.946 84.767,158.729 84.677,159.683 84.527,161.262 84.437,162.219 
		83.666,170.354 83.167,175.621 83.127,176.059 58.242,176.059 58.162,174.807 57.208,159.759 56.9,154.946 56.861,154.302 
		56.846,154.076 56.706,151.891 69.916,152.77 70.639,152.818 72.801,152.961 79.937,153.436 80.159,153.45 85.022,153.773 	"/>
	<path fill="#746E39" d="M82.019,147.18l4.218-19.573c0,0-7.633,14.863-7.633,21.089C78.604,154.923,82.019,147.18,82.019,147.18z"
		/>
	<path fill="#497939" d="M80.01,146.085c0,0,4.218-27.517,1.206-35.751c0,0-6.026,27.425-5.424,36.846
		C76.394,156.602,80.01,146.085,80.01,146.085z"/>
	<path fill="#93B957" d="M63.74,148.696c-0.803-4.82-7.033-17.979-7.033-17.979c-0.405,6.726,3.017,17.979,3.017,17.979
		S64.545,153.517,63.74,148.696z"/>
	<path fill="#387137" d="M65.95,148.294c-0.603-5.624-7.03-26.712-7.03-26.712c-0.804,5.422,3.013,26.712,3.013,26.712
		S66.553,153.918,65.95,148.294z"/>
	<path fill="#5C8139" d="M67.958,148.495c-0.401-2.41-5.551-39.969-5.551-39.969c-2.138,5.624,1.424,38.654,1.424,38.654
		C64.042,149.227,68.36,150.907,67.958,148.495z"/>
	<path fill="#4C5F2A" d="M69.967,147.18c0-3.124-3.962-47.693-3.962-47.693c-0.549,2.813-2.174,29.618-2.174,29.618l2.119,19.189
		C65.95,148.294,69.967,150.304,69.967,147.18z"/>
	<path fill="#3B482E" d="M77.219,107.723c0,0-6.652,35.617-6.249,41.208c0.403,5.59,6.873,7.821,6.249-17.396
		C77.219,131.534,77.642,112.343,77.219,107.723z"/>
	<path fill="#6B8F3C" d="M75.75,127.607c0,0-0.571-11.248-1.569-15.064c0,0-4.816,34.31-4.213,37.14
		C70.57,152.513,74.878,144.236,75.75,127.607z"/>
	<path fill="#47412C" d="M72.832,136.188c1.058-12.259-3.869-31.077-3.869-31.077c-1.406,2.812-2.063,19.097-2.063,19.097
		s1.862,26.698,3.015,28.561C71.068,154.633,71.775,148.447,72.832,136.188z"/>
	<path fill="#716D3B" d="M85.233,153.788l-0.109,1.159l-0.356,3.783l-0.09,0.954l-0.15,1.579l-0.09,0.957
		c-1.434,0.298-3.61,1.077-6.104,3.071c-2.559,2.046-5.453,5.37-8.221,10.769H58.242l-0.08-1.251l-0.954-15.048l-0.307-4.813
		l-0.04-0.645l-0.015-0.226l15.955-0.442l7.136-0.198l0.222,0.014l4.863,0.323L85.233,153.788z"/>
	<polygon fill="#868145" points="56.409,147.18 54.565,154.946 87.375,154.946 85.303,147.18 	"/>
</g>
<g>
	<linearGradient id="SVGID_1_" gradientUnits="userSpaceOnUse" x1="208.5786" y1="164.917" x2="233.9731" y2="164.917">
		<stop  offset="0" style="stop-color:#F89E59"/>
		<stop  offset="1" style="stop-color:#FFD256"/>
	</linearGradient>
	<path fill="url(#SVGID_1_)" d="M232.319,157.81c-1.453-0.965-3.46-0.734-4.85-0.389l0.507-3.646h-19.397l3.104,22.283h13.19
		l0.291-2.082l0.279-2c1.995-0.041,3.79-0.743,5.229-2.063c2.097-1.92,3.301-5.015,3.301-8.491
		C233.973,159.345,233.073,158.311,232.319,157.81z M229.244,168.352c-0.985,0.901-2.162,1.4-3.506,1.495l1.411-10.125
		c1.035-0.352,3-0.813,3.999-0.149c0.175,0.117,0.709,0.471,0.709,1.85C231.856,164.307,230.903,166.832,229.244,168.352z"/>
	<defs>
		<filter id="Adobe_OpacityMaskFilter" filterUnits="userSpaceOnUse" x="208.579" y="153.775" width="16.294" height="22.283">
			<feFlood  style="flood-color:white;flood-opacity:1" result="back"/>
			<feBlend  in="SourceGraphic" in2="back" mode="normal"/>
		</filter>
	</defs>
	<mask maskUnits="userSpaceOnUse" x="208.579" y="153.775" width="16.294" height="22.283" id="SVGID_2_">
		<g filter="url(#Adobe_OpacityMaskFilter)">
			<defs>
				<filter id="Adobe_OpacityMaskFilter_1_" filterUnits="userSpaceOnUse" x="208.579" y="153.775" width="16.294" height="22.283">
					<feFlood  style="flood-color:white;flood-opacity:1" result="back"/>
					<feBlend  in="SourceGraphic" in2="back" mode="normal"/>
				</filter>
			</defs>
			<mask maskUnits="userSpaceOnUse" x="208.579" y="153.775" width="16.294" height="22.283" id="SVGID_2_">
				<g filter="url(#Adobe_OpacityMaskFilter_1_)">
				</g>
			</mask>
			<linearGradient id="SVGID_3_" gradientUnits="userSpaceOnUse" x1="209.354" y1="178.4219" x2="218.7888" y2="161.1395">
				<stop  offset="0" style="stop-color:#FFFFFF"/>
				<stop  offset="1" style="stop-color:#000000"/>
			</linearGradient>
			<path mask="url(#SVGID_2_)" fill="url(#SVGID_3_)" d="M224.873,176.059L224.873,176.059h-13.19l-3.104-22.283h7.143
				C215.721,153.775,213.155,173.886,224.873,176.059C224.873,176.059,224.87,176.057,224.873,176.059z"/>
		</g>
	</mask>
	<linearGradient id="SVGID_4_" gradientUnits="userSpaceOnUse" x1="209.354" y1="178.4219" x2="218.7888" y2="161.1395">
		<stop  offset="0" style="stop-color:#F9A059"/>
		<stop  offset="1" style="stop-color:#F9A059"/>
	</linearGradient>
	<path fill="url(#SVGID_4_)" d="M224.873,176.059L224.873,176.059h-13.19l-3.104-22.283h7.143
		C215.721,153.775,213.155,173.886,224.873,176.059C224.873,176.059,224.87,176.057,224.873,176.059z"/>
	<linearGradient id="SVGID_5_" gradientUnits="userSpaceOnUse" x1="212.5586" y1="153.9219" x2="218.6611" y2="142.7434">
		<stop  offset="0.0052" style="stop-color:#E6E6E5"/>
		<stop  offset="1" style="stop-color:#FEDBC2"/>
	</linearGradient>
	<path fill="url(#SVGID_5_)" d="M217.503,138.431c0,0-4.078,1.361-2.567,4.987c1.51,3.625,4.11,5.908,1.661,10.357
		c0,0,4.532-2.729,2.418-7.261C216.899,141.982,215.615,140.699,217.503,138.431z"/>
	<linearGradient id="SVGID_6_" gradientUnits="userSpaceOnUse" x1="219.7246" y1="153.8828" x2="224.2009" y2="145.6833">
		<stop  offset="0.0052" style="stop-color:#E6E6E5"/>
		<stop  offset="1" style="stop-color:#FEDBC2"/>
	</linearGradient>
	<path fill="url(#SVGID_6_)" d="M223.352,142.521c0,0-2.992,0.997-1.884,3.657c1.109,2.66,3.016,4.335,1.219,7.598
		c0,0,3.325-2.002,1.774-5.326C222.909,145.125,221.967,144.182,223.352,142.521z"/>
	<linearGradient id="SVGID_7_" gradientUnits="userSpaceOnUse" x1="208.8472" y1="153.8828" x2="213.3236" y2="145.6829">
		<stop  offset="0.0052" style="stop-color:#E6E6E5"/>
		<stop  offset="1" style="stop-color:#FEDBC2"/>
	</linearGradient>
	<path fill="url(#SVGID_7_)" d="M212.475,142.521c0,0-2.992,0.997-1.885,3.657c1.107,2.66,3.015,4.335,1.219,7.598
		c0,0,3.324-2.002,1.773-5.326C212.03,145.125,211.089,144.182,212.475,142.521z"/>
</g>
<text transform="matrix(1 0 0 1 215.1416 22.5488)" fill="#010101" font-family="'Arial'" font-size="11.5917">24x7 Support</text>
<text transform="matrix(1 0 0 1 248.6299 58.0986)" fill="#010101" font-family="'Arial'" font-size="11.5917">On-time Delivery</text>
<text transform="matrix(1 0 0 1 262.4023 101.6318)" fill="#010101" font-family="'Arial'" font-size="11.5917">Assignment Expert</text>
<text transform="matrix(1 0 0 1 275.1602 139.7549)" fill="#010101" font-family="'Arial'" font-size="11.5917">Plagiarism Free</text>
<g>
	<path fill-rule="evenodd" clip-rule="evenodd" d="M192.882,12.399c0.138-0.263,0.254-0.539,0.418-0.784
		c0.244-0.37,0.612-0.599,1.051-0.614c0.815-0.028,1.631-0.009,2.47-0.009c0,0.157,0,0.293,0,0.477c-0.697,0-1.403,0-2.108,0
		c-0.812,0-1.319,0.509-1.319,1.324c0,4.627,0,9.254,0,13.881c0,0.886,0.409,1.294,1.295,1.294c3.462,0,6.924-0.013,10.385,0.008
		c0.845,0.006,1.411-0.414,1.299-1.223c-0.005-0.031,0.015-0.067,0.028-0.125c0.067-0.005,0.137-0.015,0.205-0.016
		c0.071,0,0.142,0.007,0.21,0.011c0.243,1.02-0.455,1.832-1.588,1.842c-1.178,0.01-2.357,0.002-3.534,0.002
		c-2.319,0-4.639,0-6.958,0c-1.072,0-1.485-0.309-1.801-1.338c-0.009-0.033-0.035-0.061-0.054-0.091
		C192.882,22.159,192.882,17.279,192.882,12.399z"/>
	<path fill-rule="evenodd" clip-rule="evenodd" d="M209.686,23.361c-0.142,0.05-0.279,0.136-0.423,0.143
		c-0.407,0.02-0.816-0.002-1.224,0.01c-0.273,0.008-0.402-0.102-0.401-0.377c0.003-1.622,0.006-3.243,0.003-4.865
		c0-0.242,0.096-0.353,0.341-0.351c0.457,0.005,0.913-0.011,1.368,0.007c0.115,0.005,0.225,0.108,0.334,0.167
		C209.686,19.852,209.686,21.606,209.686,23.361z"/>
	<path fill-rule="evenodd" clip-rule="evenodd" d="M202.184,9.73c0,0.19,0,0.379,0,0.598c0.265,0.012,0.489,0.023,0.735,0.036
		c0,0.607,0,1.201,0,1.824c-1.985,0-3.971,0-5.975,0c0-0.601,0-1.196,0-1.828c0.244,0,0.476,0,0.769,0c0-0.233,0-0.432,0-0.63
		C199.203,9.73,200.695,9.73,202.184,9.73z M202.431,11.723c0-0.321,0-0.601,0-0.904c-0.247,0-0.46,0-0.692,0
		c-0.019-0.197-0.037-0.372-0.055-0.561c-1.156,0-2.3,0-3.453,0c-0.014,0.2-0.027,0.375-0.042,0.583c-0.257,0-0.492,0-0.73,0
		c0,0.317,0,0.597,0,0.882C199.128,11.723,200.768,11.723,202.431,11.723z"/>
	<path fill-rule="evenodd" clip-rule="evenodd" d="M207.099,22.947c-1.61,0.198-3.152,0.694-4.761,0.559
		c-0.378-0.032-0.755-0.197-1.106-0.359c-0.151-0.07-0.335-0.29-0.331-0.437c0.011-0.353-0.111-0.628-0.28-0.916
		c-0.079-0.135-0.135-0.346-0.09-0.484c0.147-0.437,0.03-0.849-0.008-1.278c-0.031-0.334,0.114-0.684,0.206-1.16
		c-0.161-0.245-0.119-0.655,0.003-1.063c0.103-0.345,0.334-0.5,0.706-0.467c0.595,0.054,1.193,0.09,1.822,0.136
		c-0.105-0.452-0.234-0.873-0.299-1.304c-0.06-0.388-0.084-0.789-0.064-1.179c0.031-0.615,0.337-0.936,0.932-1.066
		c0.357-0.078,0.42,0.004,0.467,0.365c0.084,0.662,0.155,1.336,0.34,1.975c0.255,0.886,0.77,1.6,1.707,1.9
		c0.601,0.192,0.836,0.547,0.787,1.219c-0.078,1.052-0.027,2.113-0.03,3.17C207.099,22.687,207.099,22.815,207.099,22.947z"/>
	<path fill-rule="evenodd" clip-rule="evenodd" d="M200.849,15.295c0,0.288,0,0.536,0,0.822c-0.159,0-0.298,0-0.439,0
		c-1.307,0-2.612,0-3.92-0.001c-0.409,0-0.486-0.082-0.492-0.433c-0.008-0.348,0.186-0.412,0.483-0.41
		c1.352,0.008,2.707,0.004,4.063,0.005C200.636,15.277,200.73,15.288,200.849,15.295z"/>
	<path fill-rule="evenodd" clip-rule="evenodd" d="M206.872,14.938c-0.174,0-0.313,0-0.5,0c0-0.716,0.004-1.42-0.004-2.125
		c-0.003-0.226-0.015-0.459-0.075-0.675c-0.129-0.47-0.373-0.646-0.863-0.651c-0.777-0.007-1.555-0.001-2.341-0.001
		c0-0.186,0-0.322,0-0.457c0.93,0,1.842-0.054,2.745,0.02c0.575,0.046,0.859,0.544,0.964,1.079c0.072,0.373,0.064,0.763,0.073,1.145
		C206.879,13.822,206.872,14.372,206.872,14.938z"/>
	<path fill-rule="evenodd" clip-rule="evenodd" d="M199.302,21.478c0,0.288,0,0.535,0,0.839c-0.202,0-0.399,0-0.598,0
		c-0.672,0-1.343-0.004-2.013,0c-0.287,0.001-0.374-0.144-0.367-0.407c0.007-0.242,0.05-0.433,0.346-0.433
		C197.533,21.478,198.395,21.478,199.302,21.478z"/>
	<path fill-rule="evenodd" clip-rule="evenodd" d="M199.307,19.412c0,0.3,0,0.549,0,0.852c-0.505,0-1.004,0-1.503,0
		c-0.358,0-0.718,0.006-1.077-0.002c-0.288-0.007-0.342-0.203-0.34-0.445c0.001-0.237,0.071-0.404,0.339-0.404
		C197.575,19.411,198.422,19.412,199.307,19.412z"/>
	<path fill-rule="evenodd" clip-rule="evenodd" d="M199.302,17.357c0,0.29,0,0.536,0,0.821c-0.876,0-1.735,0.008-2.594-0.005
		c-0.27-0.003-0.262-0.233-0.26-0.427c0.001-0.206,0.027-0.39,0.303-0.39C197.59,17.359,198.427,17.357,199.302,17.357z"/>
	<path fill-rule="evenodd" clip-rule="evenodd" d="M195.502,18.936c-0.373,0.435-0.744,0.869-1.144,1.336
		c-0.089-0.255-0.165-0.473-0.274-0.781c0.147,0.134,0.227,0.207,0.327,0.298c0.351-0.301,0.696-0.593,1.041-0.886
		C195.469,18.913,195.486,18.925,195.502,18.936z"/>
	<path fill-rule="evenodd" clip-rule="evenodd" d="M195.546,20.859c-0.364,0.424-0.73,0.847-1.121,1.299
		c-0.09-0.263-0.167-0.484-0.242-0.706c0.021-0.017,0.042-0.033,0.063-0.05c0.061,0.097,0.121,0.193,0.192,0.307
		c0.384-0.325,0.728-0.616,1.07-0.906C195.521,20.822,195.535,20.841,195.546,20.859z"/>
	<path fill-rule="evenodd" clip-rule="evenodd" d="M194.423,18.242c-0.092-0.258-0.166-0.469-0.27-0.762
		c0.142,0.119,0.222,0.187,0.323,0.272c0.299-0.248,0.594-0.494,0.89-0.741c0.018,0.02,0.037,0.039,0.056,0.058
		C195.098,17.449,194.773,17.831,194.423,18.242z"/>
	<path fill-rule="evenodd" clip-rule="evenodd" d="M194.544,16.107c-0.091-0.254-0.161-0.455-0.261-0.739
		c0.139,0.109,0.211,0.167,0.311,0.246c0.275-0.23,0.555-0.465,0.836-0.7c0.023,0.02,0.047,0.04,0.072,0.061
		C195.196,15.335,194.891,15.696,194.544,16.107z"/>
</g>
<g>
	<g>
		<path fill-rule="evenodd" clip-rule="evenodd" d="M233.667,50.905c0-0.626,0-1.142,0-1.74c-0.458,0-0.924-0.017-1.387,0.004
			c-0.444,0.021-0.628-0.15-0.611-0.606c0.026-0.659,0.016-1.322,0.003-1.982c-0.005-0.354,0.124-0.51,0.498-0.509
			c2.927,0.008,5.855,0.008,8.782,0c0.378-0.001,0.499,0.17,0.492,0.518c-0.01,0.595-0.003,1.19-0.003,1.854
			c0.531,0,1.012,0.013,1.492-0.004c0.395-0.014,0.578,0.129,0.568,0.546c-0.019,0.692-0.013,1.385-0.003,2.078
			c0.006,0.343-0.143,0.488-0.48,0.479c-0.329-0.01-0.657-0.002-1.07-0.002c0,0.571,0.002,1.113-0.001,1.655
			c-0.004,0.63-0.074,0.7-0.707,0.702c-0.298,0-0.596,0-0.931,0c0,0.562,0,1.1,0,1.632c0.043,0.022,0.069,0.045,0.097,0.049
			c0.905,0.111,0.905,0.11,0.905,1.015c0,0.457,0.002,0.913,0,1.37c-0.002,0.61-0.042,0.652-0.633,0.662c-0.11,0.001-0.22,0-0.406,0
			c0,0.611-0.016,1.203,0.006,1.794c0.016,0.425-0.148,0.59-0.578,0.586c-1.542-0.016-3.085-0.007-4.628-0.007
			c-0.242,0-0.52,0.005-0.527-0.32c-0.006-0.364,0.293-0.344,0.548-0.344c1.291,0,2.582,0,3.872,0c0.17,0,0.341,0,0.553,0
			c0-0.578,0-1.114,0-1.686c-0.164-0.008-0.317-0.022-0.47-0.022c-1.354-0.001-2.708,0.007-4.061-0.007
			c-0.294-0.002-0.061-4.281-1.281-5.806C232.494,51.303,233.129,50.834,233.667,50.905z M232.375,48.411c2.807,0,5.579,0,8.37,0
			c0-0.552,0-1.066,0-1.619c-2.792,0-5.567,0-8.37,0C232.375,47.337,232.375,47.85,232.375,48.411z M242.798,49.207
			c-2.803,0-5.575,0-8.341,0c0,0.559,0,1.083,0,1.6c2.802,0,5.565,0,8.341,0C242.798,50.254,242.798,49.741,242.798,49.207z
			 M241.218,51.579c-2.559,0-5.061,0-7.567,0c0.348,0.446,0.699,0.848,0.992,1.289c0.162,0.245,0.329,0.319,0.609,0.317
			c1.838-0.012,3.679-0.005,5.519-0.007c0.15,0,0.299-0.013,0.448-0.02C241.218,52.602,241.218,52.104,241.218,51.579z
			 M235.025,57.892c1.864,0,3.693,0,5.53,0c0-0.551,0-1.071,0-1.623c-1.656,0-3.271-0.003-4.886,0.01
			c-0.099,0-0.253,0.125-0.282,0.222C235.251,56.947,235.148,57.404,235.025,57.892z M235.502,55.563c1.35,0,2.678,0,4.03,0
			c0-0.561,0-1.087,0-1.635c-1.457,0-2.89,0-4.327,0C235.305,54.482,235.4,55.004,235.502,55.563z"/>
		<path fill-rule="evenodd" clip-rule="evenodd" fill="#FFFFFF" d="M232.375,48.411c0-0.561,0-1.074,0-1.619c2.802,0,5.577,0,8.37,0
			c0,0.553,0,1.067,0,1.619C237.954,48.411,235.181,48.411,232.375,48.411z"/>
		<path fill-rule="evenodd" clip-rule="evenodd" fill="#FFFFFF" d="M242.798,49.207c0,0.535,0,1.048,0,1.6c-2.776,0-5.539,0-8.341,0
			c0-0.518,0-1.042,0-1.6C237.223,49.207,239.995,49.207,242.798,49.207z"/>
		<path fill-rule="evenodd" clip-rule="evenodd" fill="#FFFFFF" d="M241.218,51.579c0,0.524,0,1.022,0,1.58
			c-0.149,0.007-0.298,0.02-0.448,0.02c-1.839,0.001-3.68-0.005-5.519,0.007c-0.28,0.001-0.447-0.073-0.609-0.317
			c-0.293-0.441-0.644-0.843-0.992-1.289C236.158,51.579,238.66,51.579,241.218,51.579z"/>
		<path fill-rule="evenodd" clip-rule="evenodd" fill="#FFFFFF" d="M235.025,57.892c0.123-0.488,0.226-0.945,0.361-1.391
			c0.029-0.097,0.184-0.221,0.282-0.222c1.615-0.014,3.23-0.01,4.886-0.01c0,0.552,0,1.072,0,1.623
			C238.719,57.892,236.889,57.892,235.025,57.892z"/>
		<path fill-rule="evenodd" clip-rule="evenodd" fill="#FFFFFF" d="M235.502,55.563c-0.102-0.56-0.197-1.081-0.297-1.635
			c1.437,0,2.87,0,4.327,0c0,0.548,0,1.074,0,1.635C238.18,55.563,236.852,55.563,235.502,55.563z"/>
	</g>
	<g>
		<path fill-rule="evenodd" clip-rule="evenodd" d="M224.798,53.903c-0.474,0-0.904,0-1.332,0c-0.122,0-0.242,0.004-0.362-0.006
			c-0.195-0.019-0.34-0.169-0.356-0.361c-0.015-0.189,0.105-0.363,0.296-0.413c0.065-0.018,0.137-0.022,0.206-0.022
			c0.597-0.002,1.193-0.004,1.789,0.001c0.119,0.001,0.189-0.032,0.261-0.134c1.259-1.792,2.992-2.616,5.167-2.454
			c2.518,0.188,4.663,2.247,4.999,4.749c0.417,3.093-1.618,5.865-4.704,6.332c-1.841,0.279-3.446-0.273-4.783-1.579
			c-0.214-0.209-0.232-0.44-0.06-0.619c0.176-0.181,0.412-0.159,0.633,0.058c2.647,2.6,7.048,1.417,8.014-2.154
			c0.749-2.771-1.161-5.639-4.011-5.961c-2.057-0.233-3.646,0.57-4.742,2.329c-0.166,0.267-0.276,0.569-0.415,0.854
			c-0.13,0.264-0.346,0.358-0.571,0.247c-0.215-0.106-0.278-0.33-0.16-0.587C224.704,54.103,224.74,54.024,224.798,53.903z"/>
		<path fill-rule="evenodd" clip-rule="evenodd" d="M225.164,56.294c0.013,0.164,0.023,0.302,0.032,0.439
			c0.016,0.238-0.116,0.415-0.34,0.452c-0.212,0.036-0.406-0.104-0.448-0.341c-0.031-0.173-0.041-0.351-0.061-0.551
			c-0.081,0-0.153,0-0.228,0c-0.857,0-1.711,0.002-2.568,0c-0.251-0.001-0.424-0.165-0.431-0.387
			c-0.006-0.23,0.173-0.403,0.429-0.414c0.049-0.001,0.1,0,0.152,0c1.072,0,2.142,0,3.215,0c0.588,0,1.179,0,1.769,0
			c0.171,0,0.336,0.053,0.387,0.217c0.038,0.124,0.037,0.301-0.026,0.404c-0.06,0.096-0.225,0.167-0.347,0.173
			c-0.438,0.021-0.874,0.008-1.313,0.008C225.318,56.294,225.251,56.294,225.164,56.294z"/>
		<path fill-rule="evenodd" clip-rule="evenodd" d="M230.342,54.124c0,0.526,0.004,1.053-0.003,1.579
			c-0.001,0.135,0.043,0.221,0.147,0.303c0.433,0.342,0.86,0.69,1.287,1.04c0.169,0.139,0.216,0.315,0.142,0.49
			c-0.067,0.162-0.237,0.265-0.414,0.236c-0.078-0.013-0.162-0.048-0.221-0.097c-0.55-0.439-1.097-0.882-1.64-1.331
			c-0.054-0.045-0.101-0.135-0.101-0.204c-0.007-1.212-0.004-2.423-0.003-3.634c0.001-0.187,0.073-0.333,0.255-0.407
			c0.165-0.067,0.327-0.038,0.43,0.098c0.07,0.093,0.112,0.229,0.117,0.347C230.348,53.07,230.342,53.597,230.342,54.124z"/>
		<path fill-rule="evenodd" clip-rule="evenodd" d="M226.097,58.659c-0.526,0-1.052,0.002-1.579-0.001
			c-0.28-0.001-0.457-0.156-0.458-0.395c-0.001-0.245,0.181-0.407,0.471-0.408c1.047-0.001,2.092-0.001,3.138,0
			c0.276,0,0.456,0.161,0.457,0.4c0.001,0.246-0.169,0.401-0.45,0.403C227.149,58.662,226.623,58.66,226.097,58.659L226.097,58.659z
			"/>
		<path fill-rule="evenodd" clip-rule="evenodd" d="M222.751,58.657c-0.07,0-0.14,0.003-0.209,0
			c-0.223-0.013-0.382-0.175-0.388-0.387c-0.005-0.203,0.138-0.385,0.351-0.406c0.167-0.016,0.342-0.016,0.511,0.003
			c0.211,0.024,0.349,0.207,0.34,0.413c-0.007,0.208-0.16,0.362-0.378,0.377C222.902,58.662,222.827,58.657,222.751,58.657z"/>
		<path fill-rule="evenodd" clip-rule="evenodd" d="M234.441,56.066c0.003,0.231-0.169,0.405-0.406,0.411
			c-0.247,0.006-0.438-0.172-0.438-0.405c0.001-0.226,0.181-0.395,0.42-0.396C234.265,55.675,234.437,55.835,234.441,56.066z"/>
		<path fill-rule="evenodd" clip-rule="evenodd" d="M230.34,60.019c0.002,0.248-0.17,0.426-0.407,0.424
			c-0.227-0.003-0.394-0.179-0.396-0.417c-0.004-0.243,0.175-0.429,0.409-0.426C230.172,59.604,230.339,59.781,230.34,60.019z"/>
	</g>
</g>
<g>
	<path fill-rule="evenodd" clip-rule="evenodd" d="M251.664,84.938c0.137,0.123,0.282,0.239,0.411,0.368
		c1.306,1.302,2.6,2.614,3.919,3.903c0.257,0.25,0.366,0.495,0.354,0.848c-0.023,0.71-0.007,1.422-0.007,2.134
		c0,0.074,0,0.147,0,0.277c0.112-0.107,0.189-0.18,0.265-0.253c0.701-0.666,1.607-0.687,2.327-0.046
		c0.285,0.253,0.551,0.527,0.677,0.9c0.232,0.688,0.047,1.275-0.452,1.778c-0.889,0.89-1.776,1.779-2.668,2.665
		c-0.106,0.105-0.151,0.209-0.151,0.361c0.004,2.244,0.003,4.488,0.003,6.732c0,0.625-0.232,1.125-0.818,1.391
		c-0.207,0.093-0.453,0.143-0.681,0.143c-4.453,0.008-8.908,0.008-13.36,0.005c-0.903,0-1.475-0.565-1.507-1.462
		c-0.002-0.055-0.001-0.111-0.001-0.166c0-5.979,0-11.96-0.001-17.94c0-0.306,0.019-0.604,0.172-0.882
		c0.213-0.388,0.539-0.617,0.967-0.711c0.052-0.011,0.103-0.029,0.154-0.044C244.731,84.938,248.198,84.938,251.664,84.938z
		 M251.05,85.905c-0.084-0.005-0.143-0.014-0.204-0.014c-3.106,0-6.215-0.001-9.32,0c-0.438,0.001-0.607,0.166-0.607,0.598
		c-0.001,6.035-0.001,12.069,0,18.103c0,0.446,0.166,0.607,0.617,0.607c4.411,0.001,8.824,0.001,13.236,0
		c0.457,0,0.625-0.17,0.625-0.625c0.001-1.905,0.001-3.811,0.001-5.717c0-0.064-0.007-0.128-0.014-0.233
		c-0.085,0.083-0.141,0.132-0.192,0.185c-0.449,0.45-0.895,0.903-1.352,1.344c-0.1,0.096-0.235,0.183-0.366,0.211
		c-0.772,0.167-1.548,0.323-2.323,0.471c-0.321,0.061-0.658-0.257-0.579-0.589c0.174-0.731,0.289-1.476,0.456-2.208
		c0.042-0.189,0.156-0.388,0.293-0.526c1.306-1.322,2.622-2.633,3.937-3.944c0.101-0.1,0.144-0.2,0.144-0.344
		c-0.006-0.924-0.003-1.85-0.003-2.775c0-0.066-0.007-0.132-0.012-0.211c-0.095,0-0.17,0-0.246,0c-0.855,0-1.711,0.002-2.568-0.001
		c-0.939-0.004-1.521-0.59-1.521-1.529c-0.002-0.856,0-1.712,0-2.568C251.05,86.065,251.05,85.992,251.05,85.905z M256.296,93.796
		c-1.338,1.391-2.689,2.794-4.017,4.172c0.378,0.38,0.784,0.789,1.184,1.191c1.362-1.364,2.736-2.739,4.097-4.103
		C257.17,94.669,256.767,94.266,256.296,93.796z M252.029,86.641c-0.006,0.021-0.019,0.04-0.019,0.057
		c-0.001,0.676-0.009,1.353,0.002,2.028c0.007,0.394,0.184,0.55,0.59,0.552c0.641,0.005,1.283,0.001,1.925,0
		c0.042,0,0.084-0.014,0.119-0.02C253.773,88.385,252.907,87.519,252.029,86.641z M251.812,98.943
		c-0.047,0.272-0.09,0.518-0.139,0.799c0.283-0.052,0.533-0.097,0.786-0.142C252.24,99.378,252.039,99.174,251.812,98.943z"/>
	<path fill-rule="evenodd" clip-rule="evenodd" fill="#FFFFFF" d="M251.05,85.905c0,0.086,0,0.16,0,0.234
		c0,0.855-0.002,1.711,0,2.568c0.001,0.939,0.582,1.524,1.521,1.529c0.856,0.003,1.713,0.001,2.568,0.001c0.076,0,0.15,0,0.246,0
		c0.004,0.079,0.012,0.145,0.012,0.211c0,0.925-0.003,1.851,0.003,2.775c0,0.144-0.043,0.244-0.144,0.344
		c-1.315,1.312-2.631,2.622-3.937,3.944c-0.137,0.139-0.251,0.337-0.293,0.526c-0.167,0.732-0.281,1.477-0.456,2.208
		c-0.08,0.332,0.257,0.649,0.579,0.589c0.775-0.148,1.551-0.304,2.323-0.471c0.131-0.029,0.267-0.116,0.366-0.211
		c0.457-0.44,0.903-0.894,1.352-1.344c0.052-0.052,0.107-0.102,0.192-0.185c0.006,0.105,0.014,0.169,0.014,0.233
		c0,1.906,0,3.812-0.001,5.717c0,0.455-0.168,0.625-0.625,0.625c-4.412,0.001-8.825,0.001-13.236,0
		c-0.451,0-0.617-0.161-0.617-0.607c-0.001-6.034-0.001-12.068,0-18.103c0-0.432,0.169-0.597,0.607-0.598
		c3.105-0.001,6.214,0,9.32,0C250.907,85.891,250.966,85.9,251.05,85.905z M245.984,99.896c-0.995,0-1.989,0-2.981,0
		c-0.083,0-0.168-0.001-0.248,0.013c-0.227,0.039-0.36,0.201-0.369,0.433c-0.01,0.249,0.108,0.42,0.342,0.472
		c0.1,0.022,0.206,0.027,0.308,0.027c1.966,0.002,3.933,0.002,5.9,0.001c0.097,0,0.194-0.004,0.288-0.022
		c0.246-0.052,0.386-0.252,0.361-0.501c-0.026-0.277-0.204-0.42-0.536-0.422C248.025,99.894,247.005,99.896,245.984,99.896z
		 M245.262,92.183c-0.517,0-1.034,0-1.551,0c-0.296,0-0.593-0.005-0.89,0.007c-0.267,0.011-0.421,0.178-0.435,0.431
		c-0.012,0.263,0.116,0.435,0.374,0.485c0.087,0.017,0.178,0.023,0.267,0.023c1.49,0.001,2.979,0.001,4.469,0
		c0.089,0,0.179-0.006,0.267-0.023c0.308-0.061,0.462-0.353,0.342-0.645c-0.093-0.227-0.281-0.28-0.504-0.28
		C246.82,92.185,246.042,92.183,245.262,92.183z M245.047,96.041C245.047,96.04,245.047,96.04,245.047,96.041
		c-0.407,0-0.814-0.001-1.222,0c-0.337,0-0.676-0.001-1.013,0.006c-0.182,0.004-0.346,0.087-0.38,0.263
		c-0.029,0.156-0.015,0.344,0.051,0.487c0.082,0.18,0.29,0.189,0.471,0.19c1.373,0.001,2.747,0.001,4.119-0.001
		c0.089,0,0.181-0.011,0.266-0.034c0.176-0.047,0.279-0.165,0.305-0.349c0.047-0.347-0.126-0.557-0.487-0.561
		C246.456,96.036,245.75,96.041,245.047,96.041z M248.392,95.049c0-0.001,0-0.002,0-0.002c0.573,0,1.146,0.005,1.718-0.003
		c0.26-0.004,0.416-0.166,0.433-0.408c0.023-0.284-0.099-0.454-0.365-0.508c-0.082-0.016-0.165-0.022-0.248-0.023
		c-1.021-0.001-2.041-0.001-3.062,0c-0.083,0.001-0.167,0.005-0.246,0.022c-0.264,0.051-0.402,0.237-0.379,0.501
		c0.021,0.265,0.191,0.416,0.493,0.419C247.288,95.054,247.84,95.049,248.392,95.049z M250.567,92.184
		c-0.311,0-0.623-0.005-0.932,0.001c-0.316,0.007-0.483,0.16-0.497,0.436c-0.013,0.298,0.132,0.49,0.452,0.499
		c0.647,0.019,1.298,0.019,1.947,0.001c0.317-0.008,0.47-0.203,0.457-0.497c-0.012-0.274-0.182-0.431-0.496-0.439
		C251.188,92.178,250.877,92.184,250.567,92.184z M243.813,98.906c0.312,0,0.622,0.006,0.932-0.001
		c0.318-0.008,0.485-0.16,0.498-0.435c0.015-0.296-0.133-0.491-0.452-0.5c-0.648-0.019-1.297-0.019-1.947-0.001
		c-0.314,0.009-0.47,0.208-0.458,0.497c0.012,0.276,0.18,0.431,0.495,0.438C243.192,98.912,243.503,98.906,243.813,98.906z
		 M243.814,95.049c0.312,0,0.622,0.005,0.933-0.001c0.314-0.006,0.485-0.16,0.496-0.435c0.015-0.296-0.136-0.491-0.453-0.5
		c-0.648-0.019-1.297-0.019-1.947-0.001c-0.313,0.008-0.47,0.208-0.457,0.498c0.014,0.274,0.184,0.431,0.496,0.438
		C243.193,95.055,243.504,95.049,243.814,95.049z M247.66,98.905c0.318,0,0.635,0.008,0.953-0.001
		c0.315-0.008,0.479-0.165,0.487-0.444c0.01-0.288-0.134-0.478-0.442-0.487c-0.655-0.021-1.313-0.02-1.966-0.001
		c-0.301,0.008-0.459,0.209-0.449,0.485c0.007,0.275,0.178,0.44,0.486,0.448C247.039,98.913,247.35,98.905,247.66,98.905z
		 M249.602,96.043c0-0.001,0-0.001,0-0.002c-0.153,0-0.305,0-0.457,0c-0.019,0-0.04,0.002-0.061,0.003
		c-0.259,0.023-0.42,0.186-0.437,0.439c-0.015,0.244,0.131,0.459,0.385,0.478c0.375,0.026,0.757,0.028,1.134,0
		c0.274-0.021,0.396-0.216,0.377-0.497c-0.016-0.252-0.174-0.406-0.446-0.42C249.933,96.036,249.767,96.043,249.602,96.043z"/>
	<path fill-rule="evenodd" clip-rule="evenodd" fill="#FFFFFF" d="M256.296,93.796c0.47,0.47,0.874,0.873,1.265,1.261
		c-1.361,1.364-2.735,2.739-4.097,4.103c-0.4-0.402-0.806-0.811-1.184-1.191C253.607,96.59,254.958,95.187,256.296,93.796z"/>
	<path fill-rule="evenodd" clip-rule="evenodd" fill="#FFFFFF" d="M252.029,86.641c0.877,0.878,1.744,1.744,2.616,2.619
		c-0.035,0.005-0.077,0.019-0.119,0.02c-0.642,0-1.284,0.004-1.925,0c-0.406-0.002-0.583-0.159-0.59-0.552
		c-0.011-0.676-0.003-1.352-0.002-2.028C252.01,86.681,252.023,86.663,252.029,86.641z"/>
	<path fill-rule="evenodd" clip-rule="evenodd" fill="#FFFFFF" d="M251.812,98.943c0.227,0.23,0.428,0.435,0.647,0.658
		c-0.253,0.045-0.503,0.09-0.786,0.142C251.722,99.461,251.765,99.215,251.812,98.943z"/>
	<path fill-rule="evenodd" clip-rule="evenodd" d="M245.984,99.896c1.021,0,2.041-0.001,3.064,0.001
		c0.333,0.001,0.51,0.145,0.536,0.422c0.025,0.249-0.115,0.449-0.361,0.501c-0.094,0.019-0.191,0.022-0.288,0.022
		c-1.967,0.001-3.934,0.001-5.9-0.001c-0.102,0-0.208-0.004-0.308-0.027c-0.234-0.052-0.353-0.223-0.342-0.472
		c0.009-0.232,0.142-0.394,0.369-0.433c0.08-0.014,0.165-0.013,0.248-0.013C243.996,99.896,244.99,99.896,245.984,99.896z"/>
	<path fill-rule="evenodd" clip-rule="evenodd" d="M245.262,92.183c0.78,0,1.558,0.001,2.338,0c0.223,0,0.411,0.053,0.504,0.28
		c0.12,0.292-0.035,0.584-0.342,0.645c-0.087,0.017-0.177,0.023-0.267,0.023c-1.49,0.001-2.979,0.001-4.469,0
		c-0.089,0-0.179-0.007-0.267-0.023c-0.258-0.05-0.386-0.222-0.374-0.485c0.014-0.253,0.168-0.42,0.435-0.431
		c0.297-0.013,0.594-0.007,0.89-0.007C244.229,92.182,244.745,92.183,245.262,92.183z"/>
	<path fill-rule="evenodd" clip-rule="evenodd" d="M245.047,96.041c0.703,0,1.408-0.005,2.111,0.001
		c0.361,0.004,0.534,0.214,0.487,0.561c-0.026,0.185-0.129,0.302-0.305,0.349c-0.085,0.022-0.176,0.034-0.266,0.034
		c-1.373,0.002-2.747,0.002-4.119,0.001c-0.182-0.001-0.389-0.01-0.471-0.19c-0.066-0.143-0.081-0.332-0.051-0.487
		c0.034-0.176,0.198-0.259,0.38-0.263c0.337-0.007,0.676-0.006,1.013-0.006C244.233,96.039,244.64,96.04,245.047,96.041
		C245.047,96.04,245.047,96.04,245.047,96.041z"/>
	<path fill-rule="evenodd" clip-rule="evenodd" d="M248.392,95.049c-0.552,0-1.104,0.005-1.655-0.001
		c-0.302-0.003-0.472-0.155-0.493-0.419c-0.023-0.264,0.115-0.451,0.379-0.501c0.079-0.017,0.163-0.021,0.246-0.022
		c1.021-0.001,2.041-0.001,3.062,0c0.083,0.001,0.166,0.008,0.248,0.023c0.267,0.054,0.389,0.224,0.365,0.508
		c-0.018,0.242-0.173,0.404-0.433,0.408c-0.572,0.008-1.145,0.003-1.718,0.003C248.392,95.047,248.392,95.048,248.392,95.049z"/>
	<path fill-rule="evenodd" clip-rule="evenodd" d="M250.567,92.184c0.31,0,0.621-0.005,0.931,0.001
		c0.314,0.008,0.484,0.165,0.496,0.439c0.014,0.294-0.14,0.489-0.457,0.497c-0.648,0.018-1.299,0.018-1.947-0.001
		c-0.32-0.009-0.465-0.201-0.452-0.499c0.014-0.276,0.181-0.429,0.497-0.436C249.945,92.178,250.257,92.184,250.567,92.184z"/>
	<path fill-rule="evenodd" clip-rule="evenodd" d="M243.813,98.906c-0.31,0-0.621,0.006-0.932-0.001
		c-0.315-0.008-0.483-0.163-0.495-0.438c-0.012-0.29,0.143-0.488,0.458-0.497c0.65-0.018,1.298-0.018,1.947,0.001
		c0.318,0.01,0.466,0.205,0.452,0.5c-0.013,0.275-0.18,0.427-0.498,0.435C244.435,98.912,244.125,98.906,243.813,98.906z"/>
	<path fill-rule="evenodd" clip-rule="evenodd" d="M243.814,95.049c-0.31,0-0.621,0.005-0.932-0.001
		c-0.312-0.006-0.482-0.163-0.496-0.438c-0.014-0.29,0.144-0.49,0.457-0.498c0.65-0.018,1.298-0.018,1.947,0.001
		c0.317,0.008,0.467,0.203,0.453,0.5c-0.011,0.275-0.182,0.429-0.496,0.435C244.436,95.055,244.126,95.049,243.814,95.049z"/>
	<path fill-rule="evenodd" clip-rule="evenodd" d="M247.66,98.905c-0.311,0-0.621,0.008-0.932-0.001
		c-0.308-0.008-0.479-0.172-0.486-0.448c-0.01-0.275,0.148-0.477,0.449-0.485c0.654-0.019,1.312-0.02,1.966,0.001
		c0.308,0.01,0.452,0.199,0.442,0.487c-0.008,0.279-0.172,0.437-0.487,0.444C248.295,98.913,247.979,98.905,247.66,98.905z"/>
	<path fill-rule="evenodd" clip-rule="evenodd" d="M249.602,96.043c0.165,0,0.331-0.007,0.496,0.001
		c0.272,0.014,0.43,0.168,0.446,0.42c0.019,0.281-0.103,0.476-0.377,0.497c-0.377,0.028-0.759,0.026-1.134,0
		c-0.254-0.019-0.4-0.234-0.385-0.478c0.017-0.253,0.177-0.416,0.437-0.439c0.021-0.001,0.042-0.003,0.061-0.003
		c0.152,0,0.303,0,0.457,0C249.602,96.042,249.602,96.042,249.602,96.043z"/>
</g>
<g>
	<path fill-rule="evenodd" clip-rule="evenodd" d="M259.733,126.729c2.913,0,5.826,0,8.741,0c0.036,0.046,0.072,0.097,0.114,0.139
		c0.801,0.801,1.6,1.603,2.403,2.399c0.081,0.081,0.116,0.163,0.116,0.278c-0.002,4.18-0.001,8.36-0.002,12.539
		c0,0.058-0.008,0.117-0.012,0.194c-0.561,0-1.101,0-1.654,0c0,0.562,0,1.103,0,1.649c-3.795,0-7.572,0-11.374,0
		c0-0.374,0-0.737,0-1.133c-0.089,0.083-0.149,0.137-0.199,0.184c-0.522-0.519-1.038-1.03-1.557-1.545
		c0.035-0.037,0.073-0.078,0.112-0.117c0.497-0.5,0.994-1.003,1.496-1.497c0.111-0.108,0.15-0.216,0.15-0.367
		c-0.004-3.568-0.004-7.138-0.005-10.706c0-0.11,0-0.22,0-0.35c0.574,0,1.119,0,1.67,0
		C259.733,127.826,259.733,127.278,259.733,126.729z M258.604,143.395c3.441,0,6.861,0,10.289,0c0-3.988,0-7.968,0-11.966
		c-0.834,0-1.662,0-2.504,0c0-0.839,0-1.661,0-2.484c-2.603,0-5.189,0-7.78,0c0,3.388,0,6.766,0,10.172
		c0.344-0.347,0.666-0.672,0.992-0.999c0.111,0.106,0.208,0.197,0.302,0.287c0.267-0.221,0.26-0.218,0.09-0.493
		c-0.627-1.006-0.825-2.097-0.587-3.254c0.484-2.37,2.761-3.946,5.237-3.444c2.544,0.517,4.08,3.12,3.342,5.606
		c-0.722,2.432-3.381,3.771-5.759,2.888c-0.386-0.142-0.744-0.355-1.133-0.544c-0.054,0.054-0.132,0.132-0.252,0.25
		c0.12,0.083,0.23,0.159,0.384,0.268c-0.098,0.068-0.154,0.097-0.197,0.14c-0.771,0.767-1.54,1.535-2.306,2.305
		c-0.047,0.046-0.113,0.104-0.114,0.158C258.597,142.652,258.604,143.02,258.604,143.395z M259.85,135.552
		c0.01,2.146,1.759,3.884,3.905,3.88c2.157-0.005,3.881-1.74,3.877-3.893c-0.004-2.121-1.691-3.878-3.892-3.882
		C261.585,131.654,259.841,133.418,259.85,135.552z M257.106,141.435c0.252,0.255,0.505,0.512,0.74,0.749
		c0.639-0.637,1.288-1.284,1.928-1.921c-0.248-0.246-0.504-0.499-0.752-0.742C258.385,140.156,257.738,140.803,257.106,141.435z
		 M268.449,130.892c-0.498-0.498-1.008-1.002-1.506-1.5c0,0.479,0,0.984,0,1.5C267.459,130.892,267.965,130.892,268.449,130.892z
		 M259.438,139.072c0.263,0.267,0.516,0.522,0.769,0.776c0.058-0.054,0.12-0.114,0.172-0.164c-0.261-0.261-0.516-0.515-0.786-0.786
		C259.546,138.951,259.49,139.012,259.438,139.072z M260.491,138.977c0.076-0.064,0.142-0.12,0.217-0.182
		c-0.082-0.079-0.143-0.135-0.194-0.185c-0.074,0.067-0.135,0.126-0.211,0.195C260.369,138.864,260.425,138.917,260.491,138.977z"/>
	<path fill-rule="evenodd" clip-rule="evenodd" fill="#FFFFFF" d="M258.604,143.395c0-0.375-0.006-0.742,0.004-1.11
		c0.001-0.054,0.067-0.112,0.114-0.158c0.766-0.77,1.535-1.538,2.306-2.305c0.043-0.043,0.1-0.072,0.197-0.14
		c-0.154-0.109-0.265-0.185-0.384-0.268c0.12-0.118,0.198-0.197,0.252-0.25c0.389,0.189,0.747,0.402,1.133,0.544
		c2.378,0.882,5.038-0.457,5.759-2.888c0.737-2.487-0.798-5.09-3.342-5.606c-2.476-0.502-4.753,1.074-5.237,3.444
		c-0.238,1.158-0.04,2.249,0.587,3.254c0.17,0.275,0.176,0.271-0.09,0.493c-0.094-0.089-0.191-0.181-0.302-0.287
		c-0.326,0.327-0.647,0.652-0.992,0.999c0-3.407,0-6.784,0-10.172c2.591,0,5.177,0,7.78,0c0,0.824,0,1.645,0,2.484
		c0.842,0,1.67,0,2.504,0c0,3.999,0,7.978,0,11.966C265.465,143.395,262.044,143.395,258.604,143.395z"/>
	<path fill-rule="evenodd" clip-rule="evenodd" fill="#FFFFFF" d="M259.85,135.552c-0.009-2.134,1.735-3.898,3.891-3.895
		c2.201,0.004,3.888,1.761,3.892,3.882c0.004,2.153-1.721,3.888-3.877,3.893C261.609,139.436,259.86,137.698,259.85,135.552z
		 M263.716,139.159c1.942-0.002,3.491-1.48,3.619-3.356c0.143-2.091-1.485-3.805-3.514-3.865c-1.977-0.059-3.647,1.539-3.689,3.551
		C260.093,137.428,261.63,139.128,263.716,139.159z"/>
	<path fill-rule="evenodd" clip-rule="evenodd" fill="#FFFFFF" d="M257.106,141.435c0.632-0.631,1.279-1.278,1.915-1.914
		c0.248,0.243,0.505,0.496,0.752,0.742c-0.64,0.637-1.289,1.284-1.928,1.921C257.611,141.946,257.358,141.69,257.106,141.435z"/>
	<path fill-rule="evenodd" clip-rule="evenodd" fill="#FFFFFF" d="M268.449,130.892c-0.484,0-0.99,0-1.506,0c0-0.516,0-1.02,0-1.5
		C267.441,129.889,267.951,130.394,268.449,130.892z"/>
	<path fill-rule="evenodd" clip-rule="evenodd" fill="#FFFFFF" d="M259.438,139.072c0.052-0.06,0.108-0.121,0.155-0.174
		c0.271,0.271,0.525,0.525,0.786,0.786c-0.053,0.05-0.115,0.11-0.172,0.164C259.954,139.594,259.701,139.338,259.438,139.072z"/>
	<path fill-rule="evenodd" clip-rule="evenodd" fill="#FFFFFF" d="M260.491,138.977c-0.066-0.061-0.123-0.113-0.188-0.171
		c0.076-0.069,0.137-0.128,0.211-0.195c0.051,0.049,0.112,0.106,0.194,0.185C260.633,138.857,260.567,138.913,260.491,138.977z"/>
	<path fill-rule="evenodd" clip-rule="evenodd" d="M263.716,139.159c-2.086-0.031-3.624-1.73-3.584-3.669
		c0.042-2.012,1.712-3.61,3.689-3.551c2.028,0.06,3.656,1.774,3.514,3.865C267.207,137.679,265.658,139.156,263.716,139.159z
		 M263.73,138.609c1.672,0.021,3.047-1.334,3.067-3.021c0.023-1.706-1.331-3.087-3.039-3.106c-1.676-0.018-3.056,1.341-3.082,3.036
		C260.651,137.21,262.012,138.588,263.73,138.609z"/>
	<path fill-rule="evenodd" clip-rule="evenodd" fill="#FFFFFF" d="M263.73,138.609c-1.718-0.021-3.079-1.399-3.054-3.091
		c0.026-1.694,1.406-3.053,3.082-3.036c1.708,0.019,3.062,1.4,3.039,3.106C266.777,137.275,265.402,138.63,263.73,138.609z
		 M265.936,135.92c-0.08,0.472-0.295,0.862-0.58,1.166c0.121,0.143,0.23,0.273,0.342,0.408c0.412-0.423,0.666-0.905,0.762-1.486
		C266.28,135.978,266.117,135.95,265.936,135.92z M265.994,135.425c0.154-0.01,0.32-0.021,0.497-0.033
		c-0.005-0.368-0.104-0.698-0.259-1.03c-0.161,0.077-0.315,0.15-0.455,0.217C265.85,134.864,265.918,135.131,265.994,135.425z"/>
	<path fill-rule="evenodd" clip-rule="evenodd" d="M265.936,135.92c0.182,0.03,0.345,0.058,0.523,0.087
		c-0.096,0.581-0.35,1.063-0.762,1.486c-0.111-0.135-0.221-0.265-0.342-0.408C265.641,136.783,265.855,136.393,265.936,135.92z"/>
	<path fill-rule="evenodd" clip-rule="evenodd" d="M265.994,135.425c-0.076-0.294-0.145-0.561-0.217-0.845
		c0.14-0.067,0.294-0.141,0.455-0.217c0.154,0.332,0.254,0.662,0.259,1.03C266.314,135.404,266.148,135.415,265.994,135.425z"/>
</g>
</svg>
